<svg width="316" height="316" xmlns="http://www.w3.org/2000/svg">
 <!-- Created with Method Draw - http://github.com/duopixel/Method-Draw/ -->
 <g>
  <title>Layer 1</title>
  <ellipse fill="none" stroke="#000" stroke-width="16" cx="158" cy="158" id="svg_4" rx="150" ry="150"/>
  <polygon stroke="black" transform="rotate(44.368133544921875 245.03820800781244,152.99760437011724) " id="svg_2" fill="black" points="245.03822815418243,119.59202575683594 210.03017151355743,145.23171997070312 223.34309875965118,186.40318298339844 266.7333575487137,186.40318298339844 280.04628479480743,145.23171997070312 "/>
  <polygon stroke="black" transform="rotate(-90 167.97366333007815,61.07115936279296) " id="svg_3" fill="black" points="167.97366404533386,36.43602466583252 142.15678477287292,55.34416675567627 151.97447276115417,85.70629978179932 183.97285532951355,85.70629978179932 193.7905433177948,55.34416675567627 "/>
  <polygon stroke="black" transform="rotate(-75.91680908203125 152.2884674072265,242.0123596191406) " id="svg_5" fill="black" points="152.28847193717957,213.09181594848633 121.53041529655457,235.28912734985352 133.22714686393738,270.93291091918945 171.34979701042175,270.93291091918945 183.04652857780457,235.28912734985352 "/>
  <polygon stroke="black" transform="rotate(-132.02830505371094 117.21865844726561,114.40940856933592) " id="svg_6" fill="black" points="117.21866118907928,108.67634916305542 111.21060454845428,113.07661771774292 113.49536406993866,120.14245939254761 120.94195830821991,120.14245939254761 123.22671782970428,113.07661771774292 "/>
  <polygon stroke="black" transform="rotate(129.40316772460938 82.95987701416017,195.8942565917969) " id="svg_7" fill="black" points="82.95988154411316,189.22041034698486 75.96590113639832,194.342755317688 78.62558436393738,202.568097114563 87.29417872428894,202.568097114563 89.95385432243347,194.342755317688 "/>
  <polygon stroke="black" transform="rotate(-109.03175354003906 103.76579284667969,148.13011169433594) " id="svg_8" fill="black" points="103.7657824754715,135.5378017425537 90.33676636219025,145.20274925231934 95.44357788562775,160.72244834899902 112.08799469470978,160.72244834899902 117.19479858875275,145.20274925231934 "/>
  <polygon stroke="black" transform="rotate(141.7660675048828 64.72452545166016,140.305908203125) " id="svg_9" fill="black" points="64.72451782226562,136.77542734146118 61.244972229003906,139.4851746559143 62.568199157714844,143.8363709449768 66.88090515136719,143.8363709449768 68.20409393310547,139.4851746559143 "/>
 </g>
</svg>